<svg xmlns="http://www.w3.org/2000/svg" viewBox="0 0 100 100" role="img" aria-label="AroraMSP">
<defs>
<radialGradient id="cF" cx="32%" cy="28%" r="82%">
<stop offset="0%" stop-color="#3aa0e8"/>
<stop offset="55%" stop-color="#0078d4"/>
<stop offset="100%" stop-color="#0a4d8a"/>
</radialGradient>
<radialGradient id="cH" cx="30%" cy="22%" r="45%">
<stop offset="0%" stop-color="#ffffff" stop-opacity="0.55"/>
<stop offset="100%" stop-color="#ffffff" stop-opacity="0"/>
</radialGradient>
<linearGradient id="aF" x1="0" y1="0" x2="0" y2="1">
<stop offset="0%" stop-color="#ffffff"/>
<stop offset="60%" stop-color="#eef4fb"/>
<stop offset="100%" stop-color="#cdd9ea"/>
</linearGradient>
<linearGradient id="aS" x1="0" y1="0" x2="0" y2="1">
<stop offset="0%" stop-color="#000000" stop-opacity="0"/>
<stop offset="100%" stop-color="#04223f" stop-opacity="0.35"/>
</linearGradient>
<linearGradient id="aT" x1="0" y1="0" x2="0" y2="1">
<stop offset="0%" stop-color="#ffffff" stop-opacity="0.95"/>
<stop offset="35%" stop-color="#ffffff" stop-opacity="0"/>
<stop offset="100%" stop-color="#ffffff" stop-opacity="0"/>
</linearGradient>
</defs>
<path d="M 12,82 L 88,82 A 14,14 0 0 0 82,56 A 12,12 0 0 0 66,44 A 19,19 0 0 0 34,40 A 13,13 0 0 0 20,52 A 13,13 0 0 0 12,82 Z" fill="url(#cF)"/>
<path d="M 12,82 L 88,82 A 14,14 0 0 0 82,56 A 12,12 0 0 0 66,44 A 19,19 0 0 0 34,40 A 13,13 0 0 0 20,52 A 13,13 0 0 0 12,82 Z" fill="url(#cH)"/>
<path d="M 32,74 L 45.5,42 L 54.5,42 L 68,74 L 59,74 L 50,50 L 41,74 Z" fill="#0a3a6b" transform="translate(1.2 1.2)"/>
<path d="M 32,74 L 45.5,42 L 54.5,42 L 68,74 L 59,74 L 50,50 L 41,74 Z" fill="#0d4a86" transform="translate(1.0 1.0)"/>
<path d="M 32,74 L 45.5,42 L 54.5,42 L 68,74 L 59,74 L 50,50 L 41,74 Z" fill="#125b9f" transform="translate(0.8 0.8)"/>
<path d="M 32,74 L 45.5,42 L 54.5,42 L 68,74 L 59,74 L 50,50 L 41,74 Z" fill="#1d6db5" transform="translate(0.6 0.6)"/>
<path d="M 32,74 L 45.5,42 L 54.5,42 L 68,74 L 59,74 L 50,50 L 41,74 Z" fill="#3a83c3" transform="translate(0.4 0.4)"/>
<path d="M 32,74 L 45.5,42 L 54.5,42 L 68,74 L 59,74 L 50,50 L 41,74 Z" fill="#94b5d6" transform="translate(0.2 0.2)"/>
<path d="M 32,74 L 45.5,42 L 54.5,42 L 68,74 L 59,74 L 50,50 L 41,74 Z" fill="url(#aF)"/>
<path d="M 32,74 L 45.5,42 L 54.5,42 L 68,74 L 59,74 L 50,50 L 41,74 Z" fill="url(#aS)" opacity="0.7"/>
<path d="M 32,74 L 45.5,42 L 54.5,42 L 68,74 L 59,74 L 50,50 L 41,74 Z" fill="url(#aT)" opacity="0.9"/>
<circle cx="50" cy="42" r="6.5" fill="#22d3ee" fill-opacity="0.28"/>
<circle cx="50" cy="42" r="3.4" fill="#22d3ee"/>
<circle cx="49" cy="40.6" r="0.9" fill="#ffffff" fill-opacity="0.85"/>
</svg>
